<svg id="visual" viewBox="0 0 900 600" width="900" height="600" xmlns="http://www.w3.org/2000/svg" xmlns:xlink="http://www.w3.org/1999/xlink" version="1.1"><rect x="0" y="0" width="900" height="600" fill="#FFFFFF"></rect><path d="M0 409L11.5 420.5C23 432 46 455 69 462.5C92 470 115 462 138.2 459.8C161.3 457.7 184.7 461.3 207.8 453.8C231 446.3 254 427.7 277 424C300 420.3 323 431.7 346 440.7C369 449.7 392 456.3 415.2 457.8C438.3 459.3 461.7 455.7 484.8 457.3C508 459 531 466 554 465.8C577 465.7 600 458.3 623 454.5C646 450.7 669 450.3 692.2 442.7C715.3 435 738.7 420 761.8 421.3C785 422.7 808 440.3 831 442.5C854 444.7 877 431.3 888.5 424.7L900 418L900 601L888.5 601C877 601 854 601 831 601C808 601 785 601 761.8 601C738.7 601 715.3 601 692.2 601C669 601 646 601 623 601C600 601 577 601 554 601C531 601 508 601 484.8 601C461.7 601 438.3 601 415.2 601C392 601 369 601 346 601C323 601 300 601 277 601C254 601 231 601 207.8 601C184.7 601 161.3 601 138.2 601C115 601 92 601 69 601C46 601 23 601 11.5 601L0 601Z" fill="#69dbfa"></path><path d="M0 474L11.5 473C23 472 46 470 69 471C92 472 115 476 138.2 478.2C161.3 480.3 184.7 480.7 207.8 483.7C231 486.7 254 492.3 277 486.5C300 480.7 323 463.3 346 462.8C369 462.3 392 478.7 415.2 481.7C438.3 484.7 461.7 474.3 484.8 465.5C508 456.7 531 449.3 554 448.8C577 448.3 600 454.7 623 457.3C646 460 669 459 692.2 465.5C715.3 472 738.7 486 761.8 493.3C785 500.7 808 501.3 831 499.7C854 498 877 494 888.5 492L900 490L900 601L888.5 601C877 601 854 601 831 601C808 601 785 601 761.8 601C738.7 601 715.3 601 692.2 601C669 601 646 601 623 601C600 601 577 601 554 601C531 601 508 601 484.8 601C461.7 601 438.3 601 415.2 601C392 601 369 601 346 601C323 601 300 601 277 601C254 601 231 601 207.8 601C184.7 601 161.3 601 138.2 601C115 601 92 601 69 601C46 601 23 601 11.5 601L0 601Z" fill="#37d9e7"></path><path d="M0 519L11.5 518.8C23 518.7 46 518.3 69 515.5C92 512.7 115 507.3 138.2 505.2C161.3 503 184.7 504 207.8 503.7C231 503.3 254 501.7 277 498.3C300 495 323 490 346 486.2C369 482.3 392 479.7 415.2 479C438.3 478.3 461.7 479.7 484.8 486.3C508 493 531 505 554 512.2C577 519.3 600 521.7 623 516C646 510.3 669 496.7 692.2 491.5C715.3 486.3 738.7 489.7 761.8 495.3C785 501 808 509 831 508.2C854 507.3 877 497.7 888.5 492.8L900 488L900 601L888.5 601C877 601 854 601 831 601C808 601 785 601 761.8 601C738.7 601 715.3 601 692.2 601C669 601 646 601 623 601C600 601 577 601 554 601C531 601 508 601 484.8 601C461.7 601 438.3 601 415.2 601C392 601 369 601 346 601C323 601 300 601 277 601C254 601 231 601 207.8 601C184.7 601 161.3 601 138.2 601C115 601 92 601 69 601C46 601 23 601 11.5 601L0 601Z" fill="#00d5cb"></path><path d="M0 506L11.5 512C23 518 46 530 69 537.8C92 545.7 115 549.3 138.2 547.5C161.3 545.7 184.7 538.3 207.8 534C231 529.7 254 528.3 277 525.3C300 522.3 323 517.7 346 520.7C369 523.7 392 534.3 415.2 540C438.3 545.7 461.7 546.3 484.8 540.5C508 534.7 531 522.3 554 518.5C577 514.7 600 519.3 623 519C646 518.7 669 513.3 692.2 510.7C715.3 508 738.7 508 761.8 514.5C785 521 808 534 831 538.8C854 543.7 877 540.3 888.5 538.7L900 537L900 601L888.5 601C877 601 854 601 831 601C808 601 785 601 761.8 601C738.7 601 715.3 601 692.2 601C669 601 646 601 623 601C600 601 577 601 554 601C531 601 508 601 484.8 601C461.7 601 438.3 601 415.2 601C392 601 369 601 346 601C323 601 300 601 277 601C254 601 231 601 207.8 601C184.7 601 161.3 601 138.2 601C115 601 92 601 69 601C46 601 23 601 11.5 601L0 601Z" fill="#00cfa4"></path><path d="M0 549L11.5 552.7C23 556.3 46 563.7 69 567.7C92 571.7 115 572.3 138.2 570.2C161.3 568 184.7 563 207.8 560.8C231 558.7 254 559.3 277 559C300 558.7 323 557.3 346 560C369 562.7 392 569.3 415.2 571C438.3 572.7 461.7 569.3 484.8 566.2C508 563 531 560 554 558.2C577 556.3 600 555.7 623 558.2C646 560.7 669 566.3 692.2 566.8C715.3 567.3 738.7 562.7 761.8 562.7C785 562.7 808 567.3 831 564.3C854 561.3 877 550.7 888.5 545.3L900 540L900 601L888.5 601C877 601 854 601 831 601C808 601 785 601 761.8 601C738.7 601 715.3 601 692.2 601C669 601 646 601 623 601C600 601 577 601 554 601C531 601 508 601 484.8 601C461.7 601 438.3 601 415.2 601C392 601 369 601 346 601C323 601 300 601 277 601C254 601 231 601 207.8 601C184.7 601 161.3 601 138.2 601C115 601 92 601 69 601C46 601 23 601 11.5 601L0 601Z" fill="#24c773"></path></svg>